<?xml version="1.0" encoding="utf-8"?>
<!-- Generator: Adobe Illustrator 22.0.0, SVG Export Plug-In . SVG Version: 6.00 Build 0)  -->
<svg version="1.1" id="new_2_copy_4_1_" xmlns="http://www.w3.org/2000/svg" xmlns:xlink="http://www.w3.org/1999/xlink" x="0px"
	 y="0px" viewBox="0 0 198 93" style="enable-background:new 0 0 198 93;" xml:space="preserve">
<style type="text/css">
	.st0{fill:#FD9E40;}
	.st1{fill:#7EB802;}
	.st2{fill:#606060;}
	.st3{fill-rule:evenodd;clip-rule:evenodd;fill:#FD9E40;}
	.st4{fill-rule:evenodd;clip-rule:evenodd;fill:#7EB802;}
	.st5{fill:#FFFFFF;}
</style>
<g id="a">
</g>
<g id="ha">
</g>
<g>
	<g>
		<path class="st0" d="M116.8,67.9h-6.2V40.6c0-3.9-1.5-7.3-4.3-10.2s-6.3-4.3-10.1-4.2c-3.9,0.1-7.3,1.4-10,4c-2.7,2.5-4,5.8-4,9.9
			v27.8h-6.5V4.5H82v23.2c3.5-4.7,8.1-7.1,13.7-7.4c5.8-0.2,10.7,1.6,14.9,5.8c4.2,4.1,6.3,9.2,6.3,15.2V67.9z"/>
		<path class="st0" d="M170.7,67.9h-6.1v-7.3c-5.1,5.8-11.3,8.6-18.6,8.4c-6.5-0.2-11.9-2.7-16.4-7.5c-4.5-4.8-6.8-10.4-6.8-17
			c0-6.8,2.5-12.7,7.3-17.6c4.8-4.9,10.6-7.2,17.4-7c6.5,0.2,12.1,2.7,16.7,7.6c4.6,4.8,6.8,10.4,6.5,16.9v0.3V67.9z M129,44
			c-0.1,4.9,1.5,9.3,4.8,13s7.4,5.6,12.2,5.8c5.2,0.2,9.5-1.6,13.1-5.3c3.7-3.9,5.4-8.4,5.3-13.6c-0.1-4.9-1.9-9.1-5.2-12.7
			c-3.4-3.5-7.4-5.3-12.2-5.3c-5,0-9.2,1.7-12.7,5.3C130.8,34.8,129.1,39,129,44z"/>
	</g>
	<g>
		<path class="st1" d="M7.3,78.6H2.6v-1.7h11.5v1.7H9.3v13.9h-2V78.6z"/>
		<path class="st1" d="M28.5,85.2h-6v5.6h6.7v1.7h-8.7V76.9h8.4v1.7h-6.4v4.9h6V85.2z"/>
		<path class="st1" d="M47.2,92c-0.7,0.4-2.2,0.7-4.1,0.7c-4.4,0-7.7-2.8-7.7-7.9c0-4.9,3.3-8.2,8.1-8.2c1.9,0,3.2,0.4,3.7,0.7
			L46.8,79c-0.8-0.4-1.8-0.6-3.1-0.6c-3.6,0-6.1,2.3-6.1,6.4c0,3.8,2.2,6.3,6,6.3c1.2,0,2.5-0.3,3.3-0.6L47.2,92z"/>
		<path class="st1" d="M56.4,76.9v6.5h7.5v-6.5h2v15.6h-2v-7.3h-7.5v7.3h-2V76.9H56.4z"/>
		<path class="st2" d="M74,92.5V76.9h2.2l5,7.9c1.2,1.8,2.1,3.5,2.8,5.1l0,0c-0.2-2.1-0.2-4-0.2-6.4v-6.5h1.9v15.6h-2l-4.9-7.9
			c-1.1-1.7-2.1-3.5-2.9-5.2l-0.1,0c0.1,2,0.2,3.8,0.2,6.4v6.7H74z"/>
		<path class="st2" d="M107,84.5c0,5.4-3.2,8.2-7.2,8.2c-4.1,0-7-3.2-7-7.9c0-5,3.1-8.2,7.2-8.2C104.3,76.6,107,79.9,107,84.5z
			 M95,84.8c0,3.3,1.8,6.3,5,6.3c3.2,0,5-2.9,5-6.5c0-3.1-1.6-6.3-5-6.3C96.6,78.3,95,81.3,95,84.8z"/>
		<path class="st2" d="M125.1,92c-0.7,0.4-2.2,0.7-4.1,0.7c-4.4,0-7.7-2.8-7.7-7.9c0-4.9,3.3-8.2,8.1-8.2c1.9,0,3.2,0.4,3.7,0.7
			l-0.5,1.6c-0.8-0.4-1.8-0.6-3.1-0.6c-3.6,0-6.1,2.3-6.1,6.4c0,3.8,2.2,6.3,6,6.3c1.2,0,2.5-0.3,3.3-0.6L125.1,92z"/>
		<path class="st2" d="M132.2,77.1c1-0.2,2.5-0.3,3.8-0.3c2.1,0,3.5,0.4,4.5,1.3c0.8,0.7,1.2,1.8,1.2,3c0,2.1-1.3,3.4-2.9,4V85
			c1.2,0.4,1.9,1.5,2.3,3.1c0.5,2.2,0.9,3.7,1.2,4.3h-2.1c-0.3-0.4-0.6-1.8-1-3.7c-0.5-2.2-1.3-3-3.1-3h-1.9v6.8h-2V77.1z
			 M134.2,84.2h2.1c2.1,0,3.5-1.2,3.5-3c0-2-1.5-2.9-3.6-2.9c-1,0-1.7,0.1-2,0.2V84.2z"/>
		<path class="st2" d="M151.7,87.6l-1.6,4.9H148l5.3-15.6h2.4l5.3,15.6h-2.1l-1.7-4.9H151.7z M156.8,86l-1.5-4.5
			c-0.3-1-0.6-1.9-0.8-2.8h0c-0.2,0.9-0.5,1.9-0.8,2.8l-1.5,4.5H156.8z"/>
		<path class="st2" d="M170.9,78.6h-4.7v-1.7h11.5v1.7h-4.7v13.9h-2V78.6z"/>
		<path class="st2" d="M183.7,90c0.9,0.6,2.2,1,3.6,1c2,0,3.2-1.1,3.2-2.7c0-1.5-0.8-2.3-2.9-3.1c-2.5-0.9-4.1-2.2-4.1-4.4
			c0-2.4,2-4.2,5-4.2c1.6,0,2.7,0.4,3.4,0.8l-0.6,1.6c-0.5-0.3-1.5-0.7-2.9-0.7c-2.1,0-2.9,1.3-2.9,2.3c0,1.5,0.9,2.2,3.1,3
			c2.6,1,4,2.3,4,4.6c0,2.4-1.8,4.5-5.4,4.5c-1.5,0-3.1-0.4-4-1L183.7,90z"/>
	</g>
	<g id="Shape_39">
		<g>
			<rect x="0.9" y="4.5" class="st3" width="69.4" height="64.9"/>
		</g>
	</g>
	<g id="Shape_73_copy_17">
		<g>
			<path class="st4" d="M180.4,4.3l4.6,51.6c3.8-3.4,8.9-1.6,8.9-1.6l2.8-53.4C188.3,7.4,180.4,4.3,180.4,4.3z"/>
		</g>
	</g>
	<g id="Shape_74_copy_17">
		<g>
			<path class="st4" d="M190.2,57c-4.2,0-7.6,2.8-7.6,6.2c0,3.4,3.4,6.2,7.6,6.2s7.6-2.8,7.6-6.2C197.7,59.7,194.4,57,190.2,57z"/>
		</g>
	</g>
	<g>
		<path class="st5" d="M59.6,60h-6.1v-7.3c-5.1,5.8-11.3,8.6-18.6,8.4c-6.5-0.2-11.9-2.7-16.4-7.5c-4.5-4.8-6.8-10.4-6.8-17
			c0-6.8,2.5-12.7,7.3-17.6c4.8-4.9,10.6-7.2,17.4-7c6.5,0.2,12.1,2.7,16.7,7.6c4.6,4.8,6.8,10.4,6.5,16.9v0.3V60z M18,36.1
			c-0.1,4.9,1.5,9.3,4.8,13c3.4,3.7,7.4,5.6,12.2,5.8c5.2,0.2,9.5-1.6,13.1-5.3c3.7-3.9,5.4-8.4,5.3-13.6c-0.1-4.9-1.9-9.1-5.2-12.7
			c-3.4-3.5-7.4-5.3-12.2-5.3c-5,0-9.2,1.7-12.7,5.3C19.8,26.8,18.1,31,18,36.1z"/>
	</g>
</g>
<g id="Technocrats">
</g>
</svg>
